<svg xmlns="http://www.w3.org/2000/svg" width="512" height="512" viewBox="0 0 512 512">
  <defs>
    <linearGradient id="g" x1="0" y1="0" x2="1" y2="1">
      <stop offset="0" stop-color="#0f62fe"/>
      <stop offset="1" stop-color="#0052d4"/>
    </linearGradient>
  </defs>
  <rect width="512" height="512" fill="url(#g)"/>
  <g transform="translate(140 124)" fill="none" stroke="#ffffff" stroke-width="40" stroke-linecap="round" stroke-linejoin="round">
    <path d="M232 136c0 32-22.4 48-49 57.3a6.4 6.4 0 0 1-4.3 0C152 184 129.6 168 129.6 136V74.4a6.4 6.4 0 0 1 6.4-6.4c12.8 0 28.8-7.7 40-17.4a6.4 6.4 0 0 1 9.7 0c11.2 9.7 27.2 17.4 40 17.4a6.4 6.4 0 0 1 6.4 6.4z"/>
    <path d="m147.2 158.4 19.2 19.2 44.8-44.8"/>
  </g>
</svg>