<svg xmlns="http://www.w3.org/2000/svg" width="512" height="512" viewBox="0 0 512 512">
  <defs>
    <linearGradient id="g" x1="0" y1="0" x2="1" y2="1">
      <stop offset="0" stop-color="#0f62fe"/>
      <stop offset="1" stop-color="#0052d4"/>
    </linearGradient>
  </defs>
  <rect width="512" height="512" rx="116" fill="url(#g)"/>
  <g transform="translate(116 92)" fill="none" stroke="#ffffff" stroke-width="36" stroke-linecap="round" stroke-linejoin="round">
    <path d="M280 128c0 40-28 60-61.3 71.6a8 8 0 0 1-5.4 0C180 188 152 168 152 128V56a8 8 0 0 1 8-8c16 0 36-9.6 50-21.8a8 8 0 0 1 12.1 0C236 38.4 256 48 272 48a8 8 0 0 1 8 8z"/>
    <path d="m188 140 24 24 56-56"/>
  </g>
</svg>